<svg width="193" height="33" viewBox="0 0 193 33" fill="none" xmlns="http://www.w3.org/2000/svg">
<path d="M2.51 32.588L0.116 5.54C1.684 5.036 3.532 4.588 5.66 4.196C7.816 3.776 10 3.566 12.212 3.566C13.752 3.566 15.25 3.692 16.706 3.944C18.19 4.196 19.562 4.63 20.822 5.246C21.746 7.514 22.208 9.88 22.208 12.344C22.208 14.808 21.732 17.23 20.78 19.61C19.856 21.962 18.526 24.104 16.79 26.036C15.054 27.968 12.968 29.522 10.532 30.698C8.124 31.874 5.45 32.504 2.51 32.588ZM7.088 29.06C8.88 28.332 10.336 27.226 11.456 25.742C12.576 24.258 13.402 22.592 13.934 20.744C14.466 18.896 14.732 17.048 14.732 15.2C14.732 13.212 14.438 11.42 13.85 9.824C13.262 8.2 12.394 7.052 11.246 6.38C10.966 6.38 10.658 6.408 10.322 6.464C10.014 6.52 9.706 6.59 9.398 6.674L7.088 29.06ZM30.4945 8.312C29.4305 8.312 28.5065 7.934 27.7225 7.178C26.9665 6.394 26.5885 5.47 26.5885 4.406C26.5885 3.342 26.9665 2.432 27.7225 1.676C28.5065 0.891997 29.4305 0.499997 30.4945 0.499997C31.5585 0.499997 32.4685 0.891997 33.2245 1.676C34.0085 2.432 34.4005 3.342 34.4005 4.406C34.4005 5.47 34.0085 6.394 33.2245 7.178C32.4685 7.934 31.5585 8.312 30.4945 8.312ZM28.5625 32.63L26.4205 11.84L35.4085 10.454L32.7205 32.252L28.5625 32.63ZM43.2001 32.63L41.0581 11.798L50.0461 10.412L49.1221 17.804H49.5001C50.5921 15.424 51.8521 13.534 53.2801 12.134C54.7081 10.734 56.2061 10.034 57.7741 10.034C58.3061 10.034 58.8241 10.118 59.3281 10.286C59.9721 11.07 60.5181 12.148 60.9661 13.52C61.4141 14.864 61.7781 16.362 62.0581 18.014C62.3381 19.666 62.5481 21.36 62.6881 23.096C62.8281 24.804 62.9261 26.442 62.9821 28.01C63.0381 29.55 63.0661 30.88 63.0661 32L55.5061 32.63C55.5061 29.914 55.4781 27.562 55.4221 25.574C55.3661 23.586 55.2821 21.766 55.1701 20.114C55.0861 18.434 54.9601 16.74 54.7921 15.032C54.2601 15.228 53.6441 15.592 52.9441 16.124C52.2721 16.656 51.5861 17.524 50.8861 18.728C50.1861 19.932 49.5281 21.626 48.9121 23.81C48.2961 25.966 47.7781 28.78 47.3581 32.252L43.2001 32.63ZM77.2267 33.008C75.2387 33.008 73.5447 32.77 72.1447 32.294C70.7727 31.846 69.6527 31.272 68.7847 30.572C68.5607 29.452 68.3927 28.374 68.2807 27.338C68.1967 26.274 68.1547 25.252 68.1547 24.272C68.1547 22.312 68.4347 20.492 68.9947 18.812C69.5827 17.132 70.2967 15.648 71.1367 14.36C72.0047 13.044 72.8867 11.966 73.7827 11.126C74.6787 10.258 75.4347 9.67 76.0507 9.362C77.3107 10.006 78.5567 10.79 79.7887 11.714C81.0207 12.638 82.1407 13.716 83.1487 14.948C84.1847 16.18 85.0107 17.566 85.6267 19.106C86.2427 20.646 86.5507 22.368 86.5507 24.272C86.5507 26.204 86.2847 27.814 85.7527 29.102C85.2207 30.39 84.2827 31.356 82.9387 32C81.5947 32.672 79.6907 33.008 77.2267 33.008ZM74.9587 29.354C76.0227 29.354 77.0867 29.284 78.1507 29.144C79.2427 28.976 80.1947 28.752 81.0067 28.472C81.2307 27.576 81.3987 26.68 81.5107 25.784C81.6227 24.888 81.6787 24.006 81.6787 23.138C81.6787 20.478 81.1187 18.042 79.9987 15.83C78.4307 16.642 77.0447 17.776 75.8407 19.232C74.6367 20.66 73.6847 22.242 72.9847 23.978C72.3127 25.686 71.9767 27.394 71.9767 29.102C72.8727 29.27 73.8667 29.354 74.9587 29.354ZM97.5163 32.588L95.4163 8.396L89.5363 8.984L89.2843 4.658L110.746 4.07L110.62 6.884L104.74 7.472L102.136 32.168L97.5163 32.588ZM121.192 33.008C119.008 33.008 117.076 32.812 115.396 32.42C113.716 32.028 112.316 31.398 111.196 30.53C110.944 29.41 110.762 28.402 110.65 27.506C110.566 26.582 110.524 25.714 110.524 24.902C110.524 22.41 110.902 20.128 111.658 18.056C112.442 15.984 113.436 14.206 114.64 12.722C115.844 11.21 117.09 10.09 118.378 9.362C119.526 9.81 120.688 10.356 121.864 11C123.068 11.616 124.174 12.344 125.182 13.184C126.19 14.024 127.002 14.976 127.618 16.04C128.234 17.076 128.542 18.224 128.542 19.484C128.542 20.8 128.304 21.906 127.828 22.802C127.38 23.67 126.554 24.328 125.35 24.776C124.146 25.224 122.41 25.448 120.142 25.448C119.19 25.448 118.266 25.406 117.37 25.322C116.502 25.238 115.746 25.126 115.102 24.986C114.57 26.302 114.304 27.674 114.304 29.102C114.948 29.186 115.648 29.256 116.404 29.312C117.16 29.34 117.888 29.354 118.588 29.354C119.904 29.354 121.248 29.256 122.62 29.06C124.02 28.836 125.42 28.472 126.82 27.968L128.08 32.042C126.96 32.406 125.812 32.658 124.636 32.798C123.46 32.938 122.312 33.008 121.192 33.008ZM117.706 23.054C118.77 23.054 119.834 22.998 120.898 22.886C121.99 22.774 122.942 22.634 123.754 22.466C123.838 21.906 123.88 21.374 123.88 20.87C123.88 19.862 123.74 18.966 123.46 18.182C123.208 17.37 122.886 16.656 122.494 16.04C120.926 17.076 119.624 18.168 118.588 19.316C117.58 20.464 116.698 21.696 115.942 23.012C116.222 23.04 116.516 23.054 116.824 23.054C117.132 23.054 117.426 23.054 117.706 23.054ZM135.731 32.63L133.589 11.798L142.577 10.412L141.737 17.132H142.031C143.095 14.808 144.355 12.988 145.811 11.672C147.295 10.328 148.891 9.586 150.599 9.446L149.423 18.392C148.975 18.336 148.541 18.294 148.121 18.266C147.729 18.21 147.337 18.182 146.945 18.182C145.741 18.182 144.705 18.448 143.837 18.98C142.997 19.512 142.297 20.464 141.737 21.836C141.205 23.18 140.785 25.07 140.477 27.506L139.889 32.252L135.731 32.63ZM155.46 32.63L153.318 11.798L162.306 10.412L161.466 17.132H161.76C162.824 14.808 164.084 12.988 165.54 11.672C167.024 10.328 168.62 9.586 170.328 9.446L169.152 18.392C168.704 18.336 168.27 18.294 167.85 18.266C167.458 18.21 167.066 18.182 166.674 18.182C165.47 18.182 164.434 18.448 163.566 18.98C162.726 19.512 162.026 20.464 161.466 21.836C160.934 23.18 160.514 25.07 160.206 27.506L159.618 32.252L155.46 32.63ZM175.986 32.966C175.818 32.966 175.636 32.966 175.44 32.966C175.272 32.966 175.104 32.952 174.936 32.924C173.984 32.28 173.214 31.328 172.626 30.068C172.066 28.78 171.786 27.45 171.786 26.078C171.786 24.93 172.052 23.978 172.584 23.222C173.116 22.466 174.068 21.906 175.44 21.542C176.84 21.15 178.8 20.954 181.32 20.954C181.936 20.954 182.594 20.982 183.294 21.038C183.994 21.066 184.736 21.136 185.52 21.248L185.436 20.324C185.324 19.176 184.778 18.28 183.798 17.636C182.846 16.992 181.712 16.67 180.396 16.67C179.668 16.67 178.898 16.782 178.086 17.006C177.302 17.23 176.518 17.58 175.734 18.056L173.886 11.966C174.81 11.574 175.986 11.238 177.414 10.958C178.87 10.65 180.368 10.496 181.908 10.496C183.952 10.496 185.73 10.79 187.242 11.378C188.782 11.966 189.972 12.89 190.812 14.15C191.68 15.382 192.114 17.02 192.114 19.064C192.114 19.316 192.1 19.61 192.072 19.946C192.072 20.282 192.058 20.52 192.03 20.66L190.854 32.252L186.696 32.63L186.066 26.54H185.73C184.806 28.5 183.504 30.068 181.824 31.244C180.172 32.392 178.226 32.966 175.986 32.966ZM179.136 28.262C179.752 28.15 180.48 27.954 181.32 27.674C182.188 27.366 183.014 26.862 183.798 26.162C184.61 25.434 185.24 24.384 185.688 23.012C185.324 23.012 184.96 23.012 184.596 23.012C184.232 22.984 183.854 22.97 183.462 22.97C182.594 22.97 181.81 22.984 181.11 23.012C180.41 23.04 179.682 23.124 178.926 23.264C178.814 23.516 178.688 23.824 178.548 24.188C178.408 24.552 178.338 25.014 178.338 25.574C178.338 26.05 178.422 26.568 178.59 27.128C178.758 27.66 178.94 28.038 179.136 28.262Z" fill="white"/>
</svg>
