<svg width="500" height="588" viewBox="0 0 500 588" fill="none" xmlns="http://www.w3.org/2000/svg">
<rect y="44" width="500" height="500" rx="50" fill="black"/>
<path d="M0 94C0 66.3858 22.3858 44 50 44H250V294H0V94Z" fill="white"/>
<path d="M250 294H500V494C500 521.614 477.614 544 450 544H250V294Z" fill="white"/>
<path d="M277.5 385.5C271.167 383 267 379.75 265 375.75C269.75 366.75 272.917 360.708 274.5 357.625C276.167 354.542 278.042 349.833 280.125 343.5C282.292 337.083 283.792 330.625 284.625 324.125H371.25H475.375C477.458 340.458 483.958 357.667 494.875 375.75C492.958 379.75 488.5 383 481.5 385.5C474.667 373.083 464.583 362.75 451.25 354.5C438 346.167 420.792 342 399.625 342C398.958 362.667 398.625 387.167 398.625 415.5C398.625 451.667 399.042 478.042 399.875 494.625C400.042 497.708 409.333 500.167 427.75 502C429.167 507.333 429 512.708 427.25 518.125C400.25 517.458 384.542 517.125 380.125 517.125C373.458 517.125 354.792 517.458 324.125 518.125C322.042 512.375 322.042 507 324.125 502C342.208 500.167 351.333 497.792 351.5 494.875C352.333 473.875 352.75 447.417 352.75 415.5C352.75 388.833 352.417 364.583 351.75 342.75C317.083 347.25 292.333 361.5 277.5 385.5ZM312.875 337.625L356.625 336.375C357.458 364.042 357.875 390.417 357.875 415.5C357.875 447.75 357.458 474.208 356.625 494.875C356.458 501.042 346.792 505.042 327.625 506.875C326.958 508.208 326.958 510.167 327.625 512.75C341.792 512.25 356.333 512 371.25 512C389 512 406.042 512.25 422.375 512.75C423.042 511.25 423.042 509.292 422.375 506.875C394.708 505.208 380.792 501.208 380.625 494.875C379.792 467.208 379.375 440.75 379.375 415.5C379.375 383.417 379.792 357.042 380.625 336.375L399.875 336.875C441.375 337.875 469.375 351.958 483.875 379.125C486.042 378.292 487.458 377.167 488.125 375.75C479.792 358.75 470.458 346.75 460.125 339.75C449.792 332.75 434.417 329.25 414 329.25H371.25C362.167 329.25 348.458 329.208 330.125 329.125C311.792 329.042 298.167 329 289.25 329C288.917 331.833 288.333 334.792 287.5 337.875C286.667 340.958 285.875 343.583 285.125 345.75C284.458 347.833 283.292 350.625 281.625 354.125C280.042 357.625 278.958 360 278.375 361.25C277.792 362.417 276.458 365 274.375 369C272.375 373 271.208 375.25 270.875 375.75C271.542 377.167 273 378.292 275.25 379.125C281.167 369.375 285.75 362.167 289 357.5C292.25 352.833 296.083 348.375 300.5 344.125C305 339.792 309.125 337.625 312.875 337.625Z" fill="black"/>
<path d="M77.25 88.75C86.3333 87.6667 95.9167 87.125 106 87.125C117.083 87.125 127 88.875 135.75 92.375C144.583 95.875 151.708 100.375 157.125 105.875C162.625 111.292 167.125 117.708 170.625 125.125C174.125 132.542 176.542 139.917 177.875 147.25C179.292 154.5 180 161.958 180 169.625C180 194.875 172.917 215.083 158.75 230.25C144.583 245.417 124.167 253 97.5 253L77 252.75C76.1667 218.167 75.75 192.333 75.75 175.25C75.75 144.333 76.25 115.5 77.25 88.75ZM104.125 267.125C76.2083 267.125 48.3333 267.458 20.5 268.125C18.4167 262.375 18.4167 257 20.5 252C38.5833 250.167 47.7083 247.708 47.875 244.625C48.875 218.458 49.375 192.25 49.375 166C49.375 139.167 48.9583 115.958 48.125 96.375C47.9583 93.2917 38.6667 90.8333 20.25 89C18.8333 83.6667 19 78.2917 20.75 72.875C31 73.0417 62.9167 73.125 116.5 73.125C128.083 73.125 138.708 73.8333 148.375 75.25C158.125 76.6667 168.042 79.5417 178.125 83.875C188.208 88.125 196.708 93.7083 203.625 100.625C210.542 107.542 216.167 116.875 220.5 128.625C224.833 140.375 227 154.125 227 169.875C227 184.875 224.458 198.167 219.375 209.75C214.292 221.333 207.625 230.667 199.375 237.75C191.208 244.833 181.583 250.667 170.5 255.25C159.417 259.75 148.5 262.833 137.75 264.5C127 266.25 115.792 267.125 104.125 267.125ZM96.5 93.25C95.5 122.5 95 149.833 95 175.25C95 195.917 95.3333 220.125 96 247.875C122.25 247.208 141.958 239.833 155.125 225.75C168.292 211.667 174.875 192.958 174.875 169.625C174.875 160.542 173.792 151.875 171.625 143.625C169.458 135.292 166 127.208 161.25 119.375C156.5 111.542 149.542 105.208 140.375 100.375C131.292 95.4583 120.583 92.8333 108.25 92.5C104.167 92.5 100.25 92.75 96.5 93.25ZM24 262.75C41.9167 262.25 65.6667 262 95.25 262C105.833 262 116.042 261.208 125.875 259.625C135.792 257.958 145.833 254.958 156 250.625C166.167 246.292 174.958 240.792 182.375 234.125C189.792 227.458 195.875 218.583 200.625 207.5C205.458 196.417 207.875 183.792 207.875 169.625C207.875 108.708 174.417 78.25 107.5 78.25C101.333 78.25 92.5833 78.375 81.25 78.625C69.9167 78.875 59.625 79 50.375 79C41.2083 79 32.5 78.75 24.25 78.25C23.5833 79.75 23.5833 81.7083 24.25 84.125C43.4167 85.9583 53.0833 89.9583 53.25 96.125C54.0833 115.708 54.5 139 54.5 166C54.5 192.417 54 218.708 53 244.875C52.8333 251.042 43.1667 255.042 24 256.875C23.1667 258.792 23.1667 260.75 24 262.75Z" fill="black"/>
</svg>
